<svg width="96" height="96" viewBox="0 0 96 96" fill="none" xmlns="http://www.w3.org/2000/svg">
  <rect width="96" height="96" rx="22" fill="#07111F"/>
  <rect x="6" y="6" width="84" height="84" rx="18" fill="#0B1B33" stroke="#2F7DFF" stroke-width="2"/>
  <circle cx="48" cy="48" r="28" fill="#0052FF"/>
  <circle cx="48" cy="48" r="21" fill="#FFFFFF"/>
  <path d="M30 35H47.2C53.2 35 56.8 38 56.8 42.7C56.8 45.4 55.5 47.5 53.2 48.8C56.3 50.1 58.1 52.6 58.1 56C58.1 61.1 54.2 64.5 47.6 64.5H30V35ZM45.8 46.8C48.4 46.8 49.8 45.7 49.8 43.7C49.8 41.8 48.4 40.7 45.8 40.7H37.1V46.8H45.8ZM46.6 58.8C49.4 58.8 51 57.6 51 55.4C51 53.2 49.4 52 46.6 52H37.1V58.8H46.6Z" fill="#0052FF"/>
  <path d="M61.7 59.3L69.1 52.8C72 50.2 73.1 48.7 73.1 46.8C73.1 44.7 71.6 43.5 69.4 43.5C67.2 43.5 65.3 44.7 63.4 47.1L59.3 43.8C61.9 40.2 65 38.2 69.8 38.2C75.4 38.2 79.2 41.5 79.2 46.4C79.2 50.4 77.1 52.8 72.9 56.4L69.3 59.5H79.5V64.5H61.7V59.3Z" fill="#0052FF"/>
</svg>
